<svg xmlns="http://www.w3.org/2000/svg" width="32" height="27.586" viewBox="0 0 32 27.586"><g transform="translate(0 -32.002)"><path d="M74.207,149.243l22.069-2.207L98.483,136H72Z" transform="translate(-67.035 -96.828)" fill="rgba(255,255,255,0.3)"/><path d="M31.448,36.416H5.306L3.252,32.307A.552.552,0,0,0,2.759,32H.552a.552.552,0,1,0,0,1.1H2.418L4.435,37.14,6.621,50.254v4.369A2.759,2.759,0,0,0,8.878,57.33a2.756,2.756,0,0,0,5.411.051H24.331a2.759,2.759,0,1,0,0-1.1H14.289A2.755,2.755,0,0,0,8.906,56.2a1.651,1.651,0,0,1-1.182-1.578V50.708L29.3,48.551a.551.551,0,0,0,.486-.441l2.207-11.034a.552.552,0,0,0-.541-.66ZM27.034,55.174a1.655,1.655,0,1,1-1.655,1.655A1.657,1.657,0,0,1,27.034,55.174Zm-15.448,0a1.655,1.655,0,1,1-1.655,1.655A1.657,1.657,0,0,1,11.586,55.174ZM30.775,37.519l-.221,1.1H5.8l-.184-1.1ZM7.631,49.608,5.985,39.726H30.334l-1.105,5.525c-.017,0-.031-.006-.048,0L9.319,47.453a.552.552,0,0,0,.06,1.1.578.578,0,0,0,.061,0L29,46.377l-.223,1.117Z" fill="#fff"/></g></svg>