<svg width="24" height="24" viewBox="0 0 24 24" fill="none" xmlns="http://www.w3.org/2000/svg">
<path d="M7.05235 4.38063C7.0672 4.29998 7.09883 4.22336 7.14524 4.15574C7.19165 4.08812 7.25175 4.03102 7.32171 3.98814L8.86088 5.52731C8.93269 5.60179 9.01873 5.66104 9.11392 5.70151C9.20912 5.74197 9.31155 5.76283 9.41499 5.76283C9.51842 5.76283 9.62077 5.74197 9.716 5.70151C9.81121 5.66104 9.89728 5.60179 9.96907 5.52731L10.554 5.00399C10.695 4.86013 10.7739 4.66672 10.7739 4.46528C10.7739 4.26384 10.695 4.07043 10.554 3.92657L9.0148 2.38739C9.04835 2.30854 9.09884 2.23803 9.16264 2.18084C9.22651 2.12366 9.30209 2.0812 9.3842 2.05647C9.92122 1.94938 10.4775 1.99522 10.9898 2.18878C11.5021 2.38234 11.9497 2.71585 12.2817 3.15133C12.6137 3.5868 12.8168 4.10676 12.8678 4.65199C12.9156 5.16274 12.8282 5.67644 12.6151 6.14176L16.7453 10.2719C17.0502 10.5768 17.0451 11.0726 16.7341 11.3712L16.3025 11.7856C16.0015 12.0746 15.525 12.071 15.2283 11.7775L11.0508 7.64519C10.5989 7.83179 10.1067 7.90277 9.619 7.85048C9.07975 7.79267 8.56705 7.58642 8.13801 7.25465C7.70889 6.92287 7.38027 6.47859 7.18865 5.9712C6.99694 5.46382 6.94976 4.91322 7.05235 4.38063Z" stroke="#31546B" stroke-linecap="round" stroke-linejoin="round"/>
<path fill-rule="evenodd" clip-rule="evenodd" d="M6.5 19.8747V19.9981C6.5 20.5503 6.0523 20.9981 5.5 20.9981H4C3.44771 20.9981 3 20.5503 3 19.9981V14.5004C3 13.9481 3.44771 13.5004 4 13.5004H5.5C5.973 13.5004 6.3693 13.8288 6.47335 14.27C7.13555 14.0314 7.909 13.7473 8.14565 13.6394C8.34665 13.5479 8.57875 13.5168 8.7716 13.5056C8.9744 13.4939 9.1848 13.502 9.3689 13.5163C9.5546 13.5306 9.72315 13.5521 9.84485 13.5698C9.90595 13.5787 9.95595 13.5867 9.9912 13.5926C10.0089 13.5956 10.0229 13.598 10.0328 13.5998L10.0445 13.6019L10.0479 13.6026L10.0498 13.6029L10.0587 13.6046L13.4031 14.3548L13.424 14.3615L13.4297 14.3633L13.4528 14.3703C13.4738 14.3767 13.5058 14.386 13.547 14.3974C13.6295 14.4203 13.7482 14.4512 13.8897 14.482C14.1771 14.5447 14.5392 14.6033 14.8769 14.6033C15.1888 14.6033 15.5115 14.7195 15.684 15.0355C15.8322 15.3067 15.7977 15.6046 15.7423 15.8108C15.6732 16.0675 15.5302 16.3377 15.3484 16.5672C15.5938 16.4746 15.862 16.365 16.1499 16.2469L16.2114 16.2216C17.0229 15.8886 17.9852 15.4937 18.8339 15.3534C19.8038 15.1929 20.5097 15.545 20.8297 16.1696C21.1145 16.7255 21.0483 17.4552 20.6196 17.8949C20.5121 18.0052 20.3481 18.121 20.1835 18.2278C20.0077 18.3418 19.7911 18.4706 19.5505 18.6071C19.0686 18.8804 18.4721 19.1946 17.8731 19.4984C16.6871 20.0999 15.4439 20.6848 15.0489 20.8295C14.5911 20.9972 14.0993 21.013 13.6264 20.9887C13.3688 20.9754 13.0696 20.9457 12.7721 20.9161C12.5572 20.8947 12.3433 20.8734 12.1468 20.8586C11.1829 20.7855 10.443 20.5503 9.7616 20.3336L9.67875 20.3072C8.97495 20.0838 8.3202 19.8857 7.4527 19.8507C7.25435 19.8427 6.8583 19.8573 6.5 19.8747ZM8.5604 14.5494C8.59245 14.5348 8.67745 14.5128 8.82925 14.504C8.97105 14.4958 9.13285 14.501 9.29175 14.5133C9.44905 14.5255 9.59445 14.5439 9.7009 14.5593C9.7538 14.567 9.79645 14.5739 9.8253 14.5788C9.83975 14.5812 9.85065 14.5831 9.8577 14.5844L9.8588 14.5846L13.1426 15.3212L13.1651 15.3281C13.1924 15.3363 13.2312 15.3476 13.2799 15.3611C13.3769 15.388 13.5139 15.4235 13.6765 15.459C13.9691 15.5229 14.3611 15.5902 14.7607 15.6016C14.7323 15.6825 14.684 15.7779 14.6186 15.873C14.5388 15.989 14.4511 16.0787 14.3792 16.13C14.1709 16.2788 14.0028 16.3411 13.9008 16.3676C13.8491 16.381 13.8127 16.3856 13.7948 16.3872L13.7872 16.3878L13.7843 16.388L11.1032 16.3556L11.0076 17.3474L11.0972 16.8555L11.008 17.3475L11.0346 17.3523L11.1109 17.366C11.1769 17.3779 11.2719 17.3948 11.3888 17.4152C11.6223 17.4561 11.943 17.5112 12.2918 17.568C12.979 17.68 13.8073 17.8041 14.2773 17.8325C14.6018 17.8521 14.9798 17.7525 15.3314 17.6351C15.6982 17.5126 16.1126 17.3431 16.5294 17.1721C17.388 16.8199 18.2623 16.4615 18.9971 16.34C19.6323 16.2349 19.8584 16.4669 19.9396 16.6255C20.056 16.8528 19.9928 17.1054 19.9037 17.1967C19.8818 17.2191 19.8031 17.2825 19.6393 17.3888C19.4866 17.4878 19.289 17.6058 19.0571 17.7373C18.5941 17.9999 18.0127 18.3063 17.4208 18.6065C16.225 19.213 15.0348 19.7697 14.705 19.8905C14.4378 19.9883 14.1077 20.0121 13.6778 19.99C13.4239 19.9769 13.183 19.9524 12.9204 19.9257C12.708 19.9041 12.4815 19.8811 12.2223 19.8614C11.3764 19.7973 10.7333 19.593 10.0442 19.3741L9.98135 19.3541C9.26755 19.1275 8.50375 18.8922 7.49295 18.8515C7.2654 18.8424 6.8603 18.8564 6.5 18.8735V15.323C7.20275 15.0715 8.24355 14.6938 8.5604 14.5494ZM9.9581 14.0944L10.0498 13.6029C10.0499 13.6029 10.0498 13.6029 9.9581 14.0944ZM5.5 14.5004H4V19.9981H5.5V14.5004Z" fill="#31546B"/>
</svg>
