<svg width="24" height="24" viewBox="0 0 24 24" fill="none" xmlns="http://www.w3.org/2000/svg">
<mask id="mask0_1893_639" style="mask-type:alpha" maskUnits="userSpaceOnUse" x="2" y="5" width="20" height="15">
<path d="M11.5 6H2.5V7H11.5V6Z" fill="white"/>
<path fill-rule="evenodd" clip-rule="evenodd" d="M11.5 8H3V18.5H2.5C2.22386 18.5 2 18.7239 2 19C2 19.2761 2.22386 19.5 2.5 19.5H21.5C21.7761 19.5 22 19.2761 22 19C22 18.7239 21.7761 18.5 21.5 18.5H21V8H19.5V9H20V18.5H18.5V12.5H14.5V18.5H4V9H11.5V8ZM17.5 18.5H15.5V13.5H17.5V18.5Z" fill="white"/>
<path d="M19.5 7V6H21.5V7H19.5Z" fill="white"/>
<path fill-rule="evenodd" clip-rule="evenodd" d="M5.5 16V12.5H13V16H13.5V17H5V16H5.5ZM6.5 13.5H12V16H6.5V13.5Z" fill="white"/>
<path d="M17.5 5H13.5C12.9477 5 12.5 5.4477 12.5 6V10C12.5 10.5523 12.9477 11 13.5 11H17.5C18.0523 11 18.5 10.5523 18.5 10V6C18.5 5.4477 18.0523 5 17.5 5Z" fill="white"/>
</mask>
<g mask="url(#mask0_1893_639)">
<path d="M16 7V6.5H15V7H16ZM14.5 7.5H14V8.5H14.5V7.5ZM3 6.5V9H4V6.5H3ZM20 6.5V9H21V6.5H20ZM15 7V9H16V7H15ZM14.5 8.5H16.5V7.5H14.5V8.5ZM11.5 6H12.5V5H11.5V6ZM2.5 6V5H1.5V6H2.5ZM2.5 7H1.5V8H2.5V7ZM11.5 7V8H12.5V7H11.5ZM11.5 8H12.5V7H11.5V8ZM3 8V7H2V8H3ZM3 18.5V19.5H4V18.5H3ZM21 18.5H20V19.5H21V18.5ZM21 8H22V7H21V8ZM19.5 8V7H18.5V8H19.5ZM19.5 9H18.5V10H19.5V9ZM20 9H21V8H20V9ZM20 18.5V19.5H21V18.5H20ZM18.5 18.5H17.5V19.5H18.5V18.5ZM18.5 12.5H19.5V11.5H18.5V12.5ZM14.5 12.5V11.5H13.5V12.5H14.5ZM14.5 18.5V19.5H15.5V18.5H14.5ZM4 18.5H3V19.5H4V18.5ZM4 9V8H3V9H4ZM11.5 9V10H12.5V9H11.5ZM19.5 6V5H18.5V6H19.5ZM19.5 7H18.5V8H19.5V7ZM21.5 6H22.5V5H21.5V6ZM21.5 7V8H22.5V7H21.5ZM15.5 18.5H14.5V19.5H15.5V18.5ZM17.5 18.5V19.5H18.5V18.5H17.5ZM15.5 13.5V12.5H14.5V13.5H15.5ZM17.5 13.5H18.5V12.5H17.5V13.5ZM12 13.5H13V12.5H12V13.5ZM6.5 13.5V12.5H5.5V13.5H6.5ZM12 16V17H13V16H12ZM6.5 16H5.5V17H6.5V16ZM5.5 16V17H6.5V16H5.5ZM5.5 12.5V11.5H4.5V12.5H5.5ZM13 12.5H14V11.5H13V12.5ZM13 16H12V17H13V16ZM13.5 16H14.5V15H13.5V16ZM13.5 17V18H14.5V17H13.5ZM5 17H4V18H5V17ZM5 16V15H4V16H5ZM11.5 5H2.5V7H11.5V5ZM1.5 6V7H3.5V6H1.5ZM2.5 8H11.5V6H2.5V8ZM12.5 7V6H10.5V7H12.5ZM2.5 19.5H3V17.5H2.5V19.5ZM3 19C3 19.2761 2.77614 19.5 2.5 19.5V17.5C1.67158 17.5 1 18.1715 1 19H3ZM2.5 18.5C2.77614 18.5 3 18.7239 3 19H1C1 19.8285 1.67158 20.5 2.5 20.5V18.5ZM21 19C21 18.7239 21.2239 18.5 21.5 18.5V20.5C22.3284 20.5 23 19.8285 23 19H21ZM21.5 19.5C21.2239 19.5 21 19.2761 21 19H23C23 18.1715 22.3284 17.5 21.5 17.5V19.5ZM21 19.5H21.5V17.5H21V19.5ZM18.5 8V9H20.5V8H18.5ZM19.5 10H20V8H19.5V10ZM19 9V18.5H21V9H19ZM20 17.5H18.5V19.5H20V17.5ZM14.5 17.5H4V19.5H14.5V17.5ZM5 18.5V9H3V18.5H5ZM4 10H11.5V8H4V10ZM12.5 9V8H10.5V9H12.5ZM18.5 6V7H20.5V6H18.5ZM21.5 5H19.5V7H21.5V5ZM22.5 7V6H20.5V7H22.5ZM19.5 8H21.5V6H19.5V8ZM15.5 19.5H17.5V17.5H15.5V19.5ZM14.5 13.5V18.5H16.5V13.5H14.5ZM17.5 12.5H15.5V14.5H17.5V12.5ZM18.5 18.5V13.5H16.5V18.5H18.5ZM12 12.5H6.5V14.5H12V12.5ZM13 16V13.5H11V16H13ZM6.5 17H12V15H6.5V17ZM5.5 13.5V16H7.5V13.5H5.5ZM13.5 15H13V17H13.5V15ZM14.5 17V16H12.5V17H14.5ZM4 16V17H6V16H4ZM5.5 15H5V17H5.5V15ZM13.5 6H17.5V4H13.5V6ZM17.5 6V10H19.5V6H17.5ZM17.5 10H13.5V12H17.5V10ZM13.5 10V6H11.5V10H13.5ZM13.5 10H11.5C11.5 11.1045 12.3954 12 13.5 12V10ZM17.5 10V12C18.6045 12 19.5 11.1045 19.5 10H17.5ZM17.5 6H19.5C19.5 4.89543 18.6045 4 17.5 4V6ZM13.5 4C12.3954 4 11.5 4.89543 11.5 6H13.5V4ZM3 9H11.5V7H3V9ZM4 18.5V8H2V18.5H4ZM21.5 18.5H2.5V20.5H21.5V18.5ZM20 8V18.5H22V8H20ZM19.5 9H21V7H19.5V9ZM19.5 18.5V12.5H17.5V18.5H19.5ZM18.5 11.5H14.5V13.5H18.5V11.5ZM13.5 12.5V18.5H15.5V12.5H13.5ZM4.5 12.5V16H6.5V12.5H4.5ZM13 11.5H5.5V13.5H13V11.5ZM14 16V12.5H12V16H14ZM5 18H13.5V16H5V18Z" fill="#31546B"/>
</g>
</svg>
