<svg width="24" height="24" viewBox="0 0 24 24" fill="none" xmlns="http://www.w3.org/2000/svg">
<path fill-rule="evenodd" clip-rule="evenodd" d="M8.47088 2.5H13.4964V3.3591C13.572 4.18786 13.688 4.81046 13.8517 5.26191C14.0159 5.71482 14.2101 5.94661 14.4109 6.06486C14.6105 6.18239 14.9025 6.23826 15.3699 6.15801C15.8371 6.07777 16.4296 5.86952 17.1824 5.51968L17.9544 5.07391L20.4672 9.42609L19.8441 9.78584C19.1295 10.2831 18.6226 10.7086 18.2964 11.0884C17.9691 11.4694 17.8601 11.7616 17.8578 12.0001C17.8555 12.2369 17.9573 12.5254 18.2766 12.902C18.5956 13.2783 19.0969 13.7007 19.8103 14.1946L20.4672 14.5739L20.1992 15.0381L17.9544 18.9261L17.1487 18.4608C16.3821 18.1117 15.7863 17.9112 15.3222 17.8436C14.8614 17.7764 14.5813 17.8468 14.3888 17.98C14.1874 18.1194 13.9925 18.389 13.8339 18.9023C13.6756 19.4145 13.571 20.1122 13.5086 21.031L13.4964 21.0311V21.5H8.47088V20.4277C8.38909 19.6322 8.26625 19.0449 8.09791 18.627C7.93035 18.2112 7.73599 18.0067 7.53265 17.9053C7.32259 17.8006 7.01215 17.7604 6.52284 17.8608C6.03679 17.9604 5.42665 18.1879 4.65892 18.553L4.01274 18.9261L1.5 14.5739L2.44088 14.0307C3.06846 13.576 3.50895 13.1849 3.78931 12.836C4.07006 12.4867 4.16182 12.2159 4.15991 11.9911C4.15799 11.7656 4.06107 11.4927 3.77196 11.1412C3.48339 10.7903 3.03253 10.3973 2.39155 9.9408L1.5 9.42609L4.01274 5.07391L4.55389 5.38636C5.33939 5.76145 5.96656 5.99954 6.46842 6.10829C6.97482 6.21802 7.2993 6.18419 7.51871 6.08211C7.72783 5.98488 7.92467 5.78664 8.09399 5.37923C8.26496 4.968 8.38961 4.3853 8.47088 3.59015V2.5ZM4.40105 17.5332C5.12086 17.2004 5.75697 16.9635 6.31547 16.849C6.9269 16.7237 7.49831 16.7342 7.99345 16.981C8.49526 17.2312 8.82934 17.6791 9.05582 18.2411C9.27961 18.7967 9.41552 19.5046 9.50098 20.3495L9.50361 20.3754V20.4673H12.5175C12.585 19.736 12.6884 19.1111 12.8472 18.5974C13.0402 17.9728 13.3328 17.4549 13.8011 17.1308C14.2785 16.8005 14.8506 16.7312 15.4711 16.8216C16.0773 16.9099 16.7762 17.1565 17.5739 17.5198L19.0665 14.9346C18.3987 14.4619 17.8653 14.0138 17.4888 13.5698C17.0779 13.085 16.8195 12.5637 16.8251 11.99C16.8307 11.418 17.0978 10.8988 17.513 10.4154C17.8884 9.97845 18.4142 9.53602 19.0685 9.06897L17.5722 6.47723C16.8062 6.83068 16.1325 7.07487 15.5447 7.17582C14.9358 7.28044 14.3699 7.23923 13.8869 6.95477C13.4051 6.67102 13.0919 6.19591 12.8808 5.61402C12.6792 5.058 12.5545 4.36038 12.4753 3.53273H9.50361V3.64212L9.50103 3.66786C9.41604 4.51396 9.27781 5.222 9.04761 5.7757C8.81401 6.33766 8.46851 6.7793 7.95431 7.01848C7.45039 7.25291 6.87051 7.25214 6.24969 7.11763C5.70931 7.00052 5.09664 6.77306 4.40642 6.45745L2.91074 9.04806L2.95001 9.07078L2.96975 9.08477C3.65081 9.56819 4.19316 10.0275 4.56959 10.4852C4.9485 10.9459 5.18804 11.4405 5.19264 11.9823C5.19723 12.5248 4.96554 13.021 4.59432 13.4829C4.2259 13.9413 3.69277 14.4006 3.02428 14.8833L3.00296 14.8987L2.91074 14.9519L4.40105 17.5332Z" fill="#31546B"/>
<path fill-rule="evenodd" clip-rule="evenodd" d="M10.9842 13.5489C11.8397 13.5489 12.5333 12.8554 12.5333 11.9998C12.5333 11.1443 11.8397 10.4507 10.9842 10.4507C10.1286 10.4507 9.43507 11.1443 9.43507 11.9998C9.43507 12.8554 10.1286 13.5489 10.9842 13.5489ZM10.9842 14.5816C12.4101 14.5816 13.566 13.4257 13.566 11.9998C13.566 10.5739 12.4101 9.41797 10.9842 9.41797C9.55828 9.41797 8.40234 10.5739 8.40234 11.9998C8.40234 13.4257 9.55828 14.5816 10.9842 14.5816Z" fill="#31546B"/>
<path fill-rule="evenodd" clip-rule="evenodd" d="M10.9832 15.6134C12.9795 15.6134 14.5978 13.9951 14.5978 11.9988C14.5978 10.0026 12.9795 8.38429 10.9832 8.38429C8.98696 8.38429 7.36867 10.0026 7.36867 11.9988C7.36867 13.9951 8.98696 15.6134 10.9832 15.6134ZM10.9832 16.6461C13.5499 16.6461 15.6305 14.5655 15.6305 11.9988C15.6305 9.43226 13.5499 7.35156 10.9832 7.35156C8.41658 7.35156 6.33594 9.43226 6.33594 11.9988C6.33594 14.5655 8.41658 16.6461 10.9832 16.6461Z" fill="#31546B"/>
<rect x="15.5" y="14" width="7" height="7.5" fill="#FBFAF6"/>
<path d="M18.9994 18.616C19.8491 18.616 20.5379 17.9272 20.5379 17.0775C20.5379 16.2279 19.8491 15.5391 18.9994 15.5391C18.1497 15.5391 17.4609 16.2279 17.4609 17.0775C17.4609 17.9272 18.1497 18.616 18.9994 18.616Z" stroke="#31546B" stroke-width="0.8" stroke-linecap="round" stroke-linejoin="round"/>
<path d="M16.373 21.0152C16.6477 20.5644 17.0336 20.1918 17.4938 19.9334C17.954 19.6748 18.4729 19.5391 19.0007 19.5391C19.5286 19.5391 20.0475 19.6748 20.5077 19.9334C20.9679 20.1918 21.3538 20.5644 21.6284 21.0152" stroke="#31546B" stroke-width="0.8" stroke-linecap="round" stroke-linejoin="round"/>
<path d="M19 22C21.2092 22 23 20.2092 23 18C23 15.7909 21.2092 14 19 14C16.7909 14 15 15.7909 15 18C15 20.2092 16.7909 22 19 22Z" stroke="#31546B" stroke-width="0.8" stroke-linecap="round" stroke-linejoin="round"/>
</svg>
