<svg xmlns="http://www.w3.org/2000/svg" width="26.94" height="32" viewBox="0 0 26.94 32"><g transform="translate(-18.074)"><path d="M380.714,105.3l-2.64-1.3v21.918l3.686-18.431A1.975,1.975,0,0,0,380.714,105.3Z" transform="translate(-337.584 -97.524)" fill="#00dba9"/><g transform="translate(18.074 0)"><path d="M43.329,5.33l-2.391-1.2A2.472,2.472,0,0,0,38.5,1.993H26.99A2.505,2.505,0,0,0,24.55,0H22.557a2.509,2.509,0,0,0-2.441,2.042,2.509,2.509,0,0,0-2.042,2.441V26.4a2.466,2.466,0,0,0,2.491,2.491H38.5A2.446,2.446,0,0,0,40.988,26.5h0L44.674,8.07A2.574,2.574,0,0,0,43.329,5.33ZM22.557,1H24.55a1.451,1.451,0,0,1,1.395,1H21.162A1.451,1.451,0,0,1,22.557,1ZM39.992,26.4A1.468,1.468,0,0,1,38.5,27.9H33.018V26.4a.5.5,0,1,0-1,0V27.9h-1V24.408a.5.5,0,0,0-1,0V27.9h-1V26.4a.5.5,0,0,0-1,0V27.9H23.055V26.4a.5.5,0,1,0-1,0V27.9H20.565A1.468,1.468,0,0,1,19.07,26.4V4.483a1.468,1.468,0,0,1,1.494-1.494h5.479v9.464a1.494,1.494,0,1,1-2.989,0V4.483a.5.5,0,1,0-1,0v7.97a2.491,2.491,0,1,0,4.981,0V2.989H38.5a1.468,1.468,0,0,1,1.494,1.494ZM43.678,7.87l-2.69,13.5V5.28l1.893.946A1.5,1.5,0,0,1,43.678,7.87Z" transform="translate(-18.074 0)" fill="#4b595b"/><path d="M216.55,96h-5.978a.5.5,0,0,0,0,1h5.978a.5.5,0,1,0,0-1Z" transform="translate(-198.119 -90.022)" fill="#4b595b"/><path d="M216.55,160h-5.978a.5.5,0,0,0,0,1h5.978a.5.5,0,1,0,0-1Z" transform="translate(-198.119 -150.038)" fill="#4b595b"/><path d="M210.572,225h1.993a.5.5,0,0,0,0-1h-1.993a.5.5,0,0,0,0,1Z" transform="translate(-198.119 -210.053)" fill="#4b595b"/><path d="M276.565,224h-1.993a.5.5,0,1,0,0,1h1.993a.5.5,0,1,0,0-1Z" transform="translate(-258.134 -210.053)" fill="#4b595b"/><path d="M88.55,320H82.572a.5.5,0,1,0,0,1H88.55a.5.5,0,1,0,0-1Z" transform="translate(-78.089 -300.075)" fill="#4b595b"/><path d="M216.55,320h-5.978a.5.5,0,1,0,0,1h5.978a.5.5,0,1,0,0-1Z" transform="translate(-198.119 -300.075)" fill="#4b595b"/><path d="M216.55,192h-5.978a.5.5,0,0,0,0,1h5.978a.5.5,0,1,0,0-1Z" transform="translate(-198.119 -180.045)" fill="#4b595b"/><path d="M93.033,288.5a.471.471,0,0,0-.5-.5H82.572a.5.5,0,0,0,0,1h9.963A.471.471,0,0,0,93.033,288.5Z" transform="translate(-78.089 -270.067)" fill="#4b595b"/><path d="M276.565,288h-1.993a.5.5,0,1,0,0,1h1.993a.5.5,0,0,0,0-1Z" transform="translate(-258.134 -270.067)" fill="#4b595b"/><path d="M210.572,129h1.993a.5.5,0,0,0,0-1h-1.993a.5.5,0,0,0,0,1Z" transform="translate(-198.119 -120.03)" fill="#4b595b"/><path d="M276.565,128h-1.993a.5.5,0,1,0,0,1h1.993a.5.5,0,0,0,0-1Z" transform="translate(-258.134 -120.03)" fill="#4b595b"/><path d="M216.55,256h-5.978a.5.5,0,0,0,0,1h5.978a.5.5,0,1,0,0-1Z" transform="translate(-198.119 -240.06)" fill="#4b595b"/></g><g transform="translate(30.029 17.015)" fill="#00dba9" stroke="#4b595b" stroke-width="1"><circle cx="7.493" cy="7.493" r="7.493" stroke="none"/><circle cx="7.493" cy="7.493" r="6.993" fill="none"/></g><path d="M6.417,34.715H4.2V32.494A.494.494,0,0,0,3.7,32H3.209a.494.494,0,0,0-.494.494v2.221H.494A.494.494,0,0,0,0,35.209V35.7a.494.494,0,0,0,.494.494H2.715v2.221a.494.494,0,0,0,.494.494H3.7a.494.494,0,0,0,.494-.494V36.2H6.417a.494.494,0,0,0,.494-.494v-.494A.494.494,0,0,0,6.417,34.715Z" transform="translate(34.066 -10.948)" fill="#4b595b"/></g></svg>